<?xml version="1.0"?>
<svg xmlns="http://www.w3.org/2000/svg" height="512px" viewBox="0 0 58 58" width="512px" class=""><g><g id="010---Vegan-Symbol"><path id="Shape" d="m27.41 32.35c-3.0336583-7.0915765-8.1900891-13.0689839-14.76-17.11-.1894496-.1167972-.4074423-.1790809-.63-.18-.4272722.0216173-.793464.3126435-.9109949.7240015-.1175308.4113579.0396371.8519155.3909949 1.0959985 10.5 6.62 16.5 17.12 16.5 28.67v3.35c-.0216669.5245192.3369787.9886489.85 1.1.2900723.044028.5848456-.0415514.8062428-.2340707.2213973-.1925194.3470795-.4725534.3437572-.7659293v-3.45c0-6.85 2.62-13.61 7.78-20.1.1831602-.2318722.2543956-.5328774.1945921-.822249s-.2445223-.5374796-.5045921-.677751c-.4561962-.2461603-1.0248666-.1029075-1.31.33-2.017475 2.514123-3.738807 5.2521482-5.13 8.16-.3467953.6936463-1.0633233 1.124287-1.8385915 1.1050124-.7752681-.0192747-1.469511-.4849898-1.7814085-1.1950124z" data-original="#000000" class="active-path" data-old_color="#000000" fill="#465902"/><path id="Shape" d="m29 0c-16.0162577 0-29 12.9837423-29 29s12.9837423 29 29 29 29-12.9837423 29-29-12.9837423-29-29-29zm16.09 24.57c-.3507008.4280207-.9819793.4907008-1.41.14s-.4907008-.9819793-.14-1.41c2.41-3 1.27-7.46.7-9.17-2.73.38-8.1 1.49-9.7 3.45-1.583085 1.8853138-1.9338121 4.5157666-.9 6.75.32-.43.63-.87 1-1.29.6268039-.9188814 1.7105658-1.4155378 2.8158114-1.2904039 1.1052455.1251339 2.0505373.851516 2.4560406 1.8872733s.2046506 2.2108597-.521852 3.0531306c-4.9 6.13-7.39 12.48-7.39 18.86v3.45c.0119435.8883097-.370438 1.7362289-1.0441357 2.3153388-.6736978.5791098-1.5694178.8298452-2.4458643.6846612-1.4831467-.2788636-2.5457881-1.5912892-2.51-3.1v-3.35c0-10.9-5.68-20.73-15.58-27-.74375534-.4686378-1.24453563-1.2399126-1.37-2.11-.16798791-1.1747877.37233345-2.338183 1.3783201-2.9677359 1.0059867-.629553 2.2885324-.6069196 3.2716799.0577359 6.9119611 4.2542685 12.3397525 10.5412855 15.54 18 .9068117-1.889739 1.9495496-3.7111881 3.12-5.45-1.9829373-3.0331093-1.7220391-7.0118072.64-9.76 2.58-3.19 10.87-4.18 11.8-4.32.427521-.0351845.8298588.2062182 1 .6.2.34 3.06 7.34-.71 11.97z" data-original="#000000" class="active-path" data-old_color="#000000" fill="#465902"/></g></g> </svg>
